<?xml version="1.0" standalone="no"?>
<!DOCTYPE svg PUBLIC "-//W3C//DTD SVG 20010904//EN"
 "http://www.w3.org/TR/2001/REC-SVG-20010904/DTD/svg10.dtd">
<svg version="1.0" xmlns="http://www.w3.org/2000/svg"
 width="260.000000pt" height="260.000000pt" viewBox="0 0 260.000000 260.000000"
 preserveAspectRatio="xMidYMid meet">

<g transform="translate(0.000000,260.000000) scale(0.100000,-0.100000)"
fill="#000000" stroke="none">
<path d="M377 2222 l-217 -217 0 -911 c0 -694 3 -913 12 -922 17 -17 1719 -17
1736 0 9 9 12 87 12 288 l0 276 63 46 c61 44 65 50 257 384 107 186 196 349
198 362 2 13 -2 30 -9 38 -6 8 -70 46 -140 85 -123 68 -130 70 -153 56 -12 -9
-63 -85 -112 -171 -49 -86 -92 -156 -96 -156 -5 0 -8 233 -8 518 0 390 -3 521
-12 530 -9 9 -170 12 -663 12 l-650 0 -218 -218z m1443 -461 l0 -579 -50 -87
c-50 -86 -51 -91 -79 -269 -26 -161 -28 -184 -15 -204 20 -30 52 -28 102 9
l42 31 0 -201 0 -201 -780 0 -780 0 0 830 0 830 185 0 c251 0 235 -16 235 235
l0 185 570 0 570 0 0 -579z m-1250 384 l0 -115 -117 0 -118 0 115 115 c63 63
116 115 117 115 2 0 3 -52 3 -115z m1679 -591 c36 -20 67 -37 69 -39 4 -4 -47
-85 -53 -85 -9 0 -99 47 -119 63 -18 13 -18 15 5 55 13 23 26 42 28 42 2 0 34
-16 70 -36z m-39 -224 c0 -6 -214 -384 -225 -398 -5 -6 -140 74 -139 82 1 4
52 95 114 202 l112 194 69 -36 c38 -20 69 -40 69 -44z m-347 -454 l38 -23 -43
-34 c-24 -18 -49 -37 -57 -43 -12 -9 -13 -3 -7 42 7 58 15 82 25 82 3 0 23
-11 44 -24z"/>
<path d="M718 1833 l-148 -147 -68 67 c-42 42 -76 67 -90 67 -27 0 -57 -43
-45 -64 22 -39 188 -196 207 -196 25 0 366 338 366 363 0 22 -35 57 -57 57 -9
0 -83 -66 -165 -147z"/>
<path d="M1002 1728 c-15 -15 -15 -61 0 -76 9 -9 100 -12 350 -12 l338 0 16
25 c15 23 15 27 0 50 l-16 25 -338 0 c-250 0 -341 -3 -350 -12z"/>
<path d="M718 1313 l-148 -147 -68 67 c-74 73 -101 82 -127 43 -22 -33 -16
-42 93 -150 75 -74 94 -88 114 -83 29 8 358 338 358 360 0 22 -35 57 -57 57
-9 0 -83 -66 -165 -147z"/>
<path d="M1002 1208 c-15 -15 -15 -61 0 -76 9 -9 100 -12 350 -12 l338 0 16
25 c15 23 15 27 0 50 l-16 25 -338 0 c-250 0 -341 -3 -350 -12z"/>
<path d="M718 793 l-148 -147 -68 67 c-74 73 -101 82 -127 43 -22 -33 -16 -42
93 -150 75 -74 94 -88 114 -83 29 8 358 338 358 360 0 22 -35 57 -57 57 -9 0
-83 -66 -165 -147z"/>
<path d="M1002 688 c-15 -15 -15 -61 0 -76 17 -17 499 -17 516 0 15 15 15 61
0 76 -17 17 -499 17 -516 0z"/>
</g>
</svg>
